<svg width="194" height="60" viewBox="0 0 194 60" fill="none" xmlns="http://www.w3.org/2000/svg">
<path d="M21.2768 28.3183C22.099 25.25 25.2529 22.0961 28.3212 21.2739L47.4502 16.1475C50.5185 15.3252 52.3392 17.146 51.5169 20.2142L46.3906 39.3432C45.5683 42.4115 42.4144 45.5654 39.3461 46.3877L20.2172 51.514C17.1489 52.3363 15.3282 50.5155 16.1504 47.4473L21.2768 28.3183Z" fill="#9E77ED"/>
<path d="M13.6088 20.6493C14.4311 17.5811 17.585 14.4272 20.6533 13.6049L39.7822 8.47854C42.8505 7.65628 44.6713 9.47702 43.849 12.5453L38.7226 31.6743C37.9004 34.7425 34.7465 37.8964 31.6782 38.7187L12.5492 43.8451C9.48093 44.6673 7.66018 42.8466 8.48245 39.7783L13.6088 20.6493Z" fill="#6941C6"/>
<path d="M62.4542 22.08V38H59.5702V22.08H62.4542ZM78.6599 22.08V38H76.0946L68.5933 27.1561H68.4611V38H65.5772V22.08H68.1579L75.6515 32.9317H75.7915V22.08H78.6599ZM83.9322 22.08L88.0754 34.6108H88.2387L92.3741 22.08H95.5457L89.9333 38H86.373L80.7684 22.08H83.9322ZM97.6426 38V22.08H107.997V24.4975H100.527V28.8196H107.46V31.2371H100.527V35.5825H108.059V38H97.6426ZM124.022 22.08V38H121.457L113.955 27.1561H113.823V38H110.939V22.08H113.52L121.013 32.9317H121.153V22.08H124.022ZM126.465 24.4975V22.08H139.166V24.4975H134.246V38H131.385V24.4975H126.465ZM155.135 30.04C155.135 31.7553 154.814 33.2245 154.171 34.4475C153.534 35.6654 152.663 36.5982 151.559 37.246C150.46 37.8938 149.214 38.2177 147.82 38.2177C146.426 38.2177 145.177 37.8938 144.073 37.246C142.975 36.593 142.104 35.6576 141.461 34.4398C140.824 33.2167 140.505 31.7502 140.505 30.04C140.505 28.3247 140.824 26.8581 141.461 25.6402C142.104 24.4172 142.975 23.4818 144.073 22.834C145.177 22.1862 146.426 21.8623 147.82 21.8623C149.214 21.8623 150.46 22.1862 151.559 22.834C152.663 23.4818 153.534 24.4172 154.171 25.6402C154.814 26.8581 155.135 28.3247 155.135 30.04ZM152.235 30.04C152.235 28.8325 152.046 27.8142 151.668 26.985C151.295 26.1507 150.777 25.521 150.113 25.0961C149.45 24.666 148.686 24.4509 147.82 24.4509C146.955 24.4509 146.19 24.666 145.527 25.0961C144.864 25.521 144.343 26.1507 143.964 26.985C143.591 27.8142 143.405 28.8325 143.405 30.04C143.405 31.2475 143.591 32.2684 143.964 33.1027C144.343 33.9319 144.864 34.5615 145.527 34.9917C146.19 35.4166 146.955 35.6291 147.82 35.6291C148.686 35.6291 149.45 35.4166 150.113 34.9917C150.777 34.5615 151.295 33.9319 151.668 33.1027C152.046 32.2684 152.235 31.2475 152.235 30.04ZM157.861 38V22.08H163.831C165.054 22.08 166.081 22.2925 166.91 22.7174C167.744 23.1424 168.374 23.7383 168.799 24.5053C169.229 25.2671 169.444 26.1559 169.444 27.1716C169.444 28.1925 169.226 29.0787 168.791 29.8301C168.361 30.5764 167.726 31.1542 166.886 31.5636C166.047 31.9678 165.016 32.1699 163.793 32.1699H159.541V29.7757H163.404C164.119 29.7757 164.705 29.6772 165.161 29.4803C165.617 29.2782 165.954 28.9854 166.171 28.6019C166.394 28.2132 166.506 27.7365 166.506 27.1716C166.506 26.6067 166.394 26.1248 166.171 25.7257C165.948 25.3215 165.609 25.0158 165.153 24.8085C164.697 24.596 164.109 24.4898 163.388 24.4898H160.745V38H157.861ZM166.086 30.7862L170.027 38H166.809L162.938 30.7862H166.086ZM170.39 22.08H173.647L177.542 29.1227H177.697L181.592 22.08H184.849L179.058 32.0611V38H176.182V32.0611L170.39 22.08Z" fill="#09090B"/>
</svg>
